<?xml version="1.0" standalone="no"?>
<!DOCTYPE svg PUBLIC "-//W3C//DTD SVG 20010904//EN"
 "http://www.w3.org/TR/2001/REC-SVG-20010904/DTD/svg10.dtd">
<svg version="1.0" xmlns="http://www.w3.org/2000/svg"
 width="277.000000pt" height="277.000000pt" viewBox="0 0 277.000000 277.000000"
 preserveAspectRatio="xMidYMid meet">
<metadata>
Created by potrace 1.14, written by Peter Selinger 2001-2017
</metadata>
<g transform="translate(0.000000,277.000000) scale(0.100000,-0.100000)"
fill="#000000" stroke="none">
<path d="M1325 2372 c-79 -7 -78 -5 -71 -85 4 -40 9 -81 11 -92 2 -11 4 -26 4
-32 1 -7 7 -13 14 -13 11 0 12 11 7 45 -6 39 -4 45 12 46 10 1 23 3 28 4 6 1
21 3 35 4 14 0 25 6 25 12 0 8 -18 10 -54 7 l-54 -4 -4 33 c-5 43 -1 48 47 51
22 2 48 5 58 8 21 7 13 23 -11 21 -9 -1 -30 -3 -47 -5z"/>
<path d="M1509 2354 c-1 -19 -2 -29 -19 -123 -6 -30 -10 -60 -10 -66 0 -13
138 -40 149 -30 10 10 -20 23 -70 29 -43 6 -49 10 -49 31 0 33 10 54 23 50 7
-2 32 -6 55 -9 32 -5 43 -3 40 5 -2 7 -13 14 -24 15 -84 12 -86 13 -78 47 3
18 8 33 9 35 2 2 27 -1 56 -6 30 -6 57 -8 61 -5 12 7 9 20 -4 20 -25 0 -108
14 -123 19 -10 4 -15 0 -16 -12z"/>
<path d="M1741 2200 c-23 -49 -39 -94 -35 -101 4 -8 12 -3 21 15 16 31 62 53
73 36 4 -7 13 -36 19 -65 7 -29 18 -56 25 -58 12 -5 12 4 1 51 -23 101 -26 93
38 115 36 12 55 23 50 28 -6 6 -41 -2 -91 -20 -45 -17 -82 -28 -82 -25 0 2 11
26 25 53 22 44 23 61 5 61 -3 0 -25 -40 -49 -90z"/>
<path d="M878 2232 c-31 -20 -57 -40 -58 -44 0 -9 110 -178 116 -178 15 0 124
83 119 91 -4 5 -25 -4 -48 -19 -23 -16 -47 -32 -54 -35 -6 -4 -20 7 -32 25
l-20 33 45 28 c25 15 42 32 39 37 -6 9 -41 -8 -76 -37 -15 -12 -20 -10 -39 17
-12 17 -21 32 -19 34 2 1 25 17 52 35 26 18 45 36 42 42 -4 5 -7 9 -8 8 -1 0
-28 -17 -59 -37z"/>
<path d="M1995 2108 c-15 -18 -46 -52 -68 -75 -43 -45 -44 -81 0 -37 l25 25
28 -26 c24 -23 26 -31 20 -65 -4 -22 -5 -42 -2 -45 13 -12 22 -3 22 23 0 30
15 60 25 50 4 -3 19 -2 34 3 33 12 54 52 45 83 -7 25 -73 96 -89 96 -7 0 -24
-15 -40 -32z m77 -25 c17 -16 28 -37 28 -53 0 -56 -51 -67 -102 -21 l-33 30
34 35 c19 20 37 36 40 36 3 0 18 -12 33 -27z"/>
<path d="M680 2069 c0 -12 139 -148 153 -149 20 -1 1 27 -59 83 -74 70 -94 84
-94 66z"/>
<path d="M594 1950 c-12 -5 -35 -31 -52 -59 l-32 -51 23 -14 c12 -7 53 -32 92
-54 73 -42 109 -46 60 -6 -26 21 -27 24 -15 53 9 22 20 31 36 32 13 1 29 3 34
4 6 1 17 3 25 4 8 0 15 6 15 12 0 6 -17 9 -42 7 -29 -2 -43 1 -44 10 -1 6 -2
19 -3 27 0 8 -14 21 -31 30 -33 17 -36 17 -66 5z m74 -63 c3 -21 -5 -41 -34
-85 -5 -7 -84 43 -84 53 0 18 39 69 57 76 25 10 57 -14 61 -44z"/>
<path d="M2155 1908 c-79 -22 -108 -95 -65 -166 61 -100 213 -47 197 70 -9 69
-71 114 -132 96z m88 -49 c41 -50 29 -111 -26 -137 -22 -11 -35 -11 -62 -2
-68 22 -83 107 -27 151 33 26 88 20 115 -12z"/>
<path d="M538 1678 c-53 -11 -99 -26 -101 -33 -7 -17 175 -158 185 -142 4 7
-3 18 -18 27 -22 13 -25 20 -20 52 10 65 22 85 55 91 33 7 44 28 14 26 -10 -1
-62 -10 -115 -21z m41 -31 c0 -7 -6 -27 -12 -45 l-12 -33 -44 31 c-23 17 -40
34 -37 37 5 6 59 18 89 20 9 1 17 -4 16 -10z"/>
<path d="M1341 1633 c-25 -31 -34 -62 -28 -94 3 -18 5 -16 6 9 2 51 27 90 64
101 31 9 31 9 5 10 -18 1 -34 -8 -47 -26z"/>
<path d="M1442 1611 c19 -39 20 -49 9 -95 -6 -28 -12 -57 -13 -63 -1 -7 -5
-13 -8 -13 -4 0 -13 -13 -19 -29 -10 -23 -17 -27 -37 -23 -15 3 -29 15 -35 29
-5 13 -13 22 -18 19 -5 -3 -20 9 -35 26 -14 18 -26 28 -26 23 0 -5 17 -26 37
-47 34 -35 36 -40 24 -61 -11 -18 -11 -20 0 -9 15 14 48 16 68 3 12 -8 13 -14
3 -35 -14 -32 -61 -37 -69 -7 -3 11 -12 21 -21 24 -10 3 -26 8 -36 13 -14 5
-17 4 -12 -4 5 -9 -6 -12 -36 -12 -24 0 -50 -5 -58 -11 -12 -8 -11 -9 5 -5 11
3 46 6 78 7 58 2 76 -7 77 -38 0 -22 -59 -80 -103 -102 -23 -12 -36 -21 -29
-21 19 0 53 19 80 44 l24 21 -7 -30 c-3 -16 4 -5 17 25 17 40 29 56 45 58 19
3 23 -3 28 -42 4 -24 4 -51 0 -58 -6 -10 -5 -10 5 -1 13 12 16 85 5 103 -3 5
0 10 7 10 27 0 131 -104 154 -155 13 -27 24 -44 24 -37 0 19 -35 84 -61 111
l-23 24 22 -6 c57 -18 63 -16 17 5 -67 30 -126 71 -121 83 1 6 22 10 44 10 24
0 42 5 42 11 0 7 -16 10 -40 8 -22 -2 -42 2 -46 7 -3 6 19 35 50 65 31 30 48
50 37 44 -11 -5 -23 -15 -26 -20 -16 -26 -21 -5 -7 35 17 52 10 103 -18 137
-17 21 -17 19 2 -21z"/>
<path d="M2309 1636 c-3 -3 -19 -7 -36 -11 -85 -14 -119 -49 -107 -109 7 -39
44 -76 76 -76 10 0 51 7 90 16 98 22 76 40 -26 21 -70 -13 -78 -13 -97 2 -26
21 -29 79 -4 97 10 7 43 18 74 25 77 15 81 17 81 29 0 10 -42 15 -51 6z"/>
<path d="M1102 1554 c-12 -8 -22 -25 -21 -37 1 -21 1 -21 8 1 3 13 17 30 31
37 14 8 20 14 15 15 -6 0 -21 -7 -33 -16z"/>
<path d="M1170 1549 c14 -6 37 -22 53 -36 15 -15 27 -23 27 -17 -1 14 -71 64
-89 63 -9 0 -5 -4 9 -10z"/>
<path d="M1580 1510 c-12 -7 -10 -9 8 -7 12 0 22 5 22 9 0 11 -12 10 -30 -2z"/>
<path d="M1310 1494 c0 -10 5 -26 10 -34 8 -11 9 -7 4 15 -8 37 -14 45 -14 19z"/>
<path d="M1526 1501 c-4 -5 3 -7 14 -4 23 6 26 13 6 13 -8 0 -17 -4 -20 -9z"/>
<path d="M1638 1503 c7 -3 16 -2 19 1 4 3 -2 6 -13 5 -11 0 -14 -3 -6 -6z"/>
<path d="M1676 1475 c8 -37 14 -45 14 -19 0 10 -5 26 -10 34 -8 11 -9 7 -4
-15z"/>
<path d="M1090 1469 c0 -8 10 -25 23 -37 23 -22 116 -67 123 -60 2 3 -21 15
-52 28 -38 15 -62 33 -75 54 -11 18 -19 24 -19 15z"/>
<path d="M458 1460 c-51 -5 -79 -14 -67 -23 2 -2 41 -21 86 -42 l83 -38 -75
-51 c-96 -66 -97 -78 -2 -70 39 3 81 7 92 9 11 2 28 4 38 4 9 1 17 6 17 12 0
8 -24 9 -80 5 -44 -4 -80 -5 -80 -3 0 2 27 23 60 46 33 23 60 45 60 49 0 4
-32 23 -72 42 l-72 35 39 3 c77 4 125 13 125 23 0 9 -46 9 -152 -1z"/>
<path d="M1659 1416 c-12 -11 -85 -36 -144 -49 -16 -4 -15 -5 5 -5 45 -1 173
49 159 62 -3 3 -12 0 -20 -8z"/>
<path d="M2182 1349 c3 -8 24 -15 54 -17 27 -2 61 -6 76 -10 26 -7 22 -10 -62
-62 -92 -57 -110 -79 -62 -81 15 0 36 -2 47 -4 92 -14 135 -15 135 0 0 11 -12
15 -47 17 -27 0 -52 2 -58 3 -5 2 -21 3 -35 4 -20 1 -7 13 68 61 86 56 109 79
80 81 -7 0 -22 2 -33 4 -11 2 -53 7 -94 11 -59 5 -73 4 -69 -7z"/>
<path d="M1518 1343 c12 -2 30 -2 40 0 9 3 -1 5 -23 4 -22 0 -30 -2 -17 -4z"/>
<path d="M1588 1333 c7 -3 16 -2 19 1 4 3 -2 6 -13 5 -11 0 -14 -3 -6 -6z"/>
<path d="M1106 1304 c-25 -26 -37 -86 -18 -98 4 -2 6 11 4 30 -4 28 1 41 24
65 35 36 26 39 -10 3z"/>
<path d="M1650 1313 c28 -15 35 -24 35 -48 0 -25 -5 -32 -35 -42 -22 -8 -28
-12 -15 -12 31 -1 65 27 65 53 0 27 -24 51 -60 60 -17 5 -14 1 10 -11z"/>
<path d="M1406 1200 c6 -36 34 -89 61 -115 20 -20 68 -19 84 3 11 14 11 15 -1
5 -8 -7 -26 -13 -41 -13 -34 0 -73 46 -94 111 -13 39 -14 40 -9 9z"/>
<path d="M1580 1226 c0 -2 7 -7 16 -10 8 -3 12 -2 9 4 -6 10 -25 14 -25 6z"/>
<path d="M1119 1187 c5 -5 19 -7 32 -5 20 3 19 5 -9 9 -20 3 -29 2 -23 -4z"/>
<path d="M1262 1151 c-6 -17 -7 -31 -3 -31 8 0 22 52 16 58 -1 2 -7 -11 -13
-27z"/>
<path d="M1371 1137 c-1 -24 -48 -70 -63 -61 -7 4 -8 3 -4 -4 16 -26 84 41 73
70 -3 8 -6 6 -6 -5z"/>
<path d="M1266 1085 c4 -8 11 -15 16 -15 6 0 5 6 -2 15 -7 8 -14 15 -16 15 -2
0 -1 -7 2 -15z"/>
<path d="M2149 971 c-31 -32 -40 -90 -16 -108 28 -23 46 -20 92 12 45 33 69
36 78 12 8 -21 -11 -55 -42 -78 -34 -25 -32 -44 2 -28 51 24 77 98 47 133 -19
24 -47 19 -94 -14 -27 -19 -49 -28 -59 -24 -27 10 -20 53 13 84 17 15 30 31
30 34 0 15 -24 4 -51 -23z"/>
<path d="M553 955 c-68 -29 -93 -106 -53 -170 20 -32 65 -61 74 -47 3 5 -10
20 -28 34 -40 32 -52 70 -35 110 12 28 54 58 83 58 25 0 76 -50 76 -75 0 -13
4 -26 9 -30 19 -11 21 14 5 54 -24 61 -78 88 -131 66z"/>
<path d="M2033 812 c-35 -5 -81 -55 -88 -94 -15 -80 58 -152 129 -128 39 12
60 33 75 73 13 33 -3 37 -20 5 -40 -80 -135 -74 -158 9 -14 48 26 112 71 113
18 0 33 16 21 22 -5 2 -18 2 -30 0z"/>
<path d="M720 704 c-34 -48 -58 -90 -53 -93 80 -67 113 -90 118 -82 3 6 -17
28 -44 49 l-49 39 20 31 c22 35 36 33 72 -7 18 -20 46 -29 46 -14 0 3 -18 22
-40 40 l-40 35 21 29 20 29 44 -36 c25 -20 50 -34 56 -32 10 3 -62 71 -98 91
-7 4 -35 -27 -73 -79z"/>
<path d="M1787 653 c-6 -9 66 -180 82 -196 24 -24 16 18 -20 98 -42 95 -53
112 -62 98z"/>
<path d="M961 556 c-19 -50 -36 -97 -39 -103 -9 -27 20 -11 31 16 10 27 12 28
44 18 29 -9 36 -18 46 -54 6 -23 17 -45 25 -48 9 -3 12 1 8 13 -19 62 -18 67
12 78 60 23 50 104 -18 139 -76 40 -72 42 -109 -59z m137 6 c12 -21 -2 -60
-23 -68 -9 -4 -36 1 -60 10 l-44 17 13 32 c7 18 16 40 19 50 6 17 9 17 46 -3
22 -11 44 -28 49 -38z"/>
<path d="M1677 592 c-3 -4 -15 -36 -26 -72 -12 -36 -24 -72 -27 -80 -4 -11
-24 5 -69 55 -35 39 -66 67 -70 64 -3 -4 1 -47 10 -95 21 -113 24 -126 36
-119 9 6 5 44 -11 120 -5 22 -8 41 -7 42 2 1 25 -24 52 -57 28 -32 53 -59 57
-59 3 -1 16 27 27 62 31 91 38 98 46 46 3 -24 8 -53 10 -64 2 -11 4 -26 4 -32
1 -7 7 -13 15 -13 11 0 10 18 -5 103 -10 56 -19 103 -19 105 0 5 -19 1 -23 -6z"/>
<path d="M1238 462 c-34 -58 -53 -99 -46 -101 10 -3 33 19 40 40 2 4 29 5 60
2 54 -5 58 -8 70 -39 12 -33 28 -46 28 -22 0 11 -40 135 -62 191 -6 15 -16 27
-22 27 -6 0 -37 -44 -68 -98z m96 -20 c7 -22 6 -23 -36 -18 -23 2 -44 5 -46 5
-2 1 9 24 24 52 l28 51 12 -34 c6 -18 14 -43 18 -56z"/>
</g>
</svg>
