<?xml version="1.0" encoding="UTF-8" standalone="no"?><!-- Generator: Gravit.io --><svg xmlns="http://www.w3.org/2000/svg" xmlns:xlink="http://www.w3.org/1999/xlink" style="isolation:isolate" viewBox="-6548.5 -1361.5 13910 2575" width="13910pt" height="2575pt"><defs><clipPath id="_clipPath_y9rSAWr9N9xZPBspZAvDID4EDrGY7EJU"><rect x="-6548.5" y="-1361.5" width="13910" height="2575"/></clipPath></defs><g clip-path="url(#_clipPath_y9rSAWr9N9xZPBspZAvDID4EDrGY7EJU)"><path d=" M -6547 -61.087 Q -4237.024 -2651.516 125.459 -75.839 Q 4487.942 2499.839 7360 -75.839 L 7360 -75.839 L 7360 -75.839" fill="none"/><path d=" M -6547 -61.087 Q -4237.024 -2651.516 125.459 -75.839 Q 4487.942 2499.839 7360 -75.839 L 7360 -75.839 L 7360 -75.839" fill="none"/><g style="isolation: isolate;"><path d=" M -6547 -61.087 Q -4237.024 -2651.516 125.459 -75.839 Q 4487.942 2499.839 7360 -75.839 L 7360 -75.839 L 7360 -75.839" fill="none" vector-effect="non-scaling-stroke" stroke-width="1" stroke="rgb(0,0,0)" stroke-linejoin="miter" stroke-linecap="square" stroke-miterlimit="3"/><mask id="_mask_Eo9Rip63Ch8ULwMbRnho4p6JuViRzVCE"><path d=" M -6547 -61.087 Q -4237.024 -2651.516 125.459 -75.839 Q 4487.942 2499.839 7360 -75.839 L 7360 -75.839 L 7360 -75.839" fill="white" stroke="none"/></mask><path d=" M -6547 -61.087 Q -4237.024 -2651.516 125.459 -75.839 Q 4487.942 2499.839 7360 -75.839 L 7360 -75.839 L 7360 -75.839" fill="none" mask="url(#_mask_Eo9Rip63Ch8ULwMbRnho4p6JuViRzVCE)" vector-effect="non-scaling-stroke" stroke-width="2" stroke="rgb(0,0,0)" stroke-linejoin="miter" stroke-linecap="square" stroke-miterlimit="3"/></g></g></svg>